<svg width="25" height="24" viewBox="0 0 25 24" fill="none" xmlns="http://www.w3.org/2000/svg">
  <path fill-rule="evenodd" clip-rule="evenodd"
    d="M6.5 1H18.5C20.7091 1 22.5 2.79086 22.5 5V19C22.5 21.2091 20.7091 23 18.5 23H6.5C4.29086 23 2.5 21.2091 2.5 19V5C2.5 2.79086 4.29086 1 6.5 1ZM6.5 3C5.39543 3 4.5 3.89543 4.5 5V19C4.5 20.1046 5.39543 21 6.5 21H18.5C19.6046 21 20.5 20.1046 20.5 19V5C20.5 3.89543 19.6046 3 18.5 3H6.5ZM10.5 7C10.5 6.44772 10.9477 6 11.5 6L17.5 6C18.0523 6 18.5 6.44772 18.5 7C18.5 7.55229 18.0523 8 17.5 8L11.5 8C10.9477 8 10.5 7.55228 10.5 7ZM11.5 11C10.9477 11 10.5 11.4477 10.5 12C10.5 12.5523 10.9477 13 11.5 13L17.5 13C18.0523 13 18.5 12.5523 18.5 12C18.5 11.4477 18.0523 11 17.5 11L11.5 11ZM10.5 17C10.5 16.4477 10.9477 16 11.5 16L17.5 16C18.0523 16 18.5 16.4477 18.5 17C18.5 17.5523 18.0523 18 17.5 18H11.5C10.9477 18 10.5 17.5523 10.5 17ZM7.5 8C8.05228 8 8.5 7.55228 8.5 7C8.5 6.44772 8.05228 6 7.5 6C6.94772 6 6.5 6.44772 6.5 7C6.5 7.55228 6.94772 8 7.5 8ZM8.5 12C8.5 12.5523 8.05228 13 7.5 13C6.94772 13 6.5 12.5523 6.5 12C6.5 11.4477 6.94772 11 7.5 11C8.05228 11 8.5 11.4477 8.5 12ZM7.5 18C8.05228 18 8.5 17.5523 8.5 17C8.5 16.4477 8.05228 16 7.5 16C6.94772 16 6.5 16.4477 6.5 17C6.5 17.5523 6.94772 18 7.5 18Z"
    fill="#3B3E5B" />
</svg>
