<svg width="24" height="24" viewBox="0 0 24 24" fill="none" xmlns="http://www.w3.org/2000/svg">
  <path d="M10.9799 2C10.5326 2 10.1156 2.21009 9.87132 2.55844L8.6086 4.35897L6.55235 5.49259L4.24422 5.60927C3.79763 5.63186 3.39352 5.86263 3.16988 6.22286L2.17732 7.82156C1.95369 8.18179 1.94081 8.62265 2.14308 8.99359L3.1885 10.9108V13.0892L2.14308 15.0064C1.94081 15.3774 1.95369 15.8182 2.17732 16.1784L3.16988 17.7771C3.39352 18.1374 3.79763 18.3681 4.24422 18.3907L6.55235 18.5074L8.66372 19.641L9.92644 21.4416C10.1708 21.7899 10.5877 22 11.035 22H13.0201C13.4674 22 13.8844 21.7899 14.1287 21.4416L15.3914 19.641L17.4477 18.5075L19.7558 18.3908C20.2024 18.3682 20.6065 18.1374 20.8301 17.7772L21.8227 16.1785C22.0463 15.8183 22.0592 15.3774 21.8569 15.0065L20.8115 13.0892V10.9108L21.8569 8.99359C22.0592 8.62265 22.0463 8.18179 21.8227 7.82156L20.8301 6.22286C20.6065 5.86263 20.2024 5.63186 19.7558 5.60927L17.4477 5.49259L15.3363 4.35897L14.0736 2.55844C13.8293 2.21009 13.4123 2 12.965 2H10.9799Z" stroke="#F5F5F5" stroke-width="2"/>
  <path d="M10.7679 9.86603C11.5303 9.42586 12.4697 9.42586 13.2321 9.86603C13.9944 10.3062 14.4641 11.1197 14.4641 12C14.4641 12.8803 13.9944 13.6938 13.2321 14.134C12.4697 14.5741 11.5303 14.5741 10.7679 14.134C10.0056 13.6938 9.5359 12.8803 9.5359 12C9.5359 11.1197 10.0056 10.3062 10.7679 9.86603Z" stroke="#F5F5F5" stroke-width="2"/>
</svg>
