<svg width="25" height="24" viewBox="0 0 25 24" fill="none" xmlns="http://www.w3.org/2000/svg">
  <path fill-rule="evenodd" clip-rule="evenodd" d="M13.3879 20.5126C12.8354 20.8309 12.165 20.8289 11.6142 20.5078C9.6283 19.3502 4.85906 16.2516 3.13221 12.3042C2.07014 9.89973 2.18278 5.99661 4.74139 4.21797C5.88325 3.29374 7.33566 2.86862 8.78234 3.03519C10.229 3.20175 11.5873 3.83897 12.5 4.99976C13.4127 3.83897 14.702 3.20175 16.1487 3.03519C17.5953 2.86862 19.0478 3.29374 20.1896 4.21797C22.8126 5.99661 22.9252 9.88326 21.8953 12.3042C20.2166 16.2571 15.3908 19.3588 13.3879 20.5126Z" stroke="#3B3E5B" stroke-width="2" stroke-linecap="round" stroke-linejoin="round"/>
  <path d="M18.5 7C19.4345 7.65777 19.8391 9.62379 19.1648 11" stroke="#3B3E5B" stroke-width="2" stroke-linecap="round" stroke-linejoin="round"/>
</svg>
