<svg width="25" height="25" viewBox="0 0 25 25" fill="none" xmlns="http://www.w3.org/2000/svg">
  <path fill-rule="evenodd" clip-rule="evenodd"
    d="M4.14047 3.75122C5.48475 2.67541 7.19253 2.1788 8.89671 2.37501C10.1945 2.52443 11.4709 3.01 12.4958 3.88991C13.4953 3.0161 14.7254 2.52571 16.0343 2.37501C17.7365 2.17902 19.4424 2.6743 20.7859 3.74758C22.3662 4.83609 23.1464 6.52706 23.4009 8.20333C23.6563 9.88457 23.4026 11.6489 22.8155 13.0289C21.8872 15.2145 20.1252 17.099 18.4101 18.5539C16.681 20.0207 14.918 21.1185 13.887 21.7124C13.0237 22.2097 11.9708 22.2064 11.1106 21.705C10.0883 21.1091 8.34477 20.0113 6.62711 18.5463C4.9227 17.0926 3.16837 15.2142 2.21671 13.0398C1.60912 11.6633 1.3479 9.89764 1.58919 8.21751C1.82979 6.54217 2.59019 4.84385 4.14047 3.75122ZM19.0757 6.51553C18.624 6.19765 18.0002 6.30606 17.6823 6.75769C17.3645 7.20931 17.4729 7.83313 17.9245 8.15102C18.093 8.26962 18.3425 8.63234 18.4515 9.24029C18.5555 9.82081 18.4924 10.433 18.2669 10.8933C18.0239 11.3893 18.2289 11.9883 18.7249 12.2313C19.2209 12.4743 19.8199 12.2692 20.0629 11.7733C20.5116 10.8574 20.5834 9.79841 20.4201 8.88743C20.2617 8.00387 19.8417 7.0547 19.0757 6.51553Z"
    fill="#3B3E5B" />
</svg>
